<svg width="26" height="29" viewBox="0 0 26 29" fill="none" xmlns="http://www.w3.org/2000/svg">
<path d="M2.78488 28.1712C2.0845 28.1712 1.48493 27.9218 0.986172 27.4231C0.487416 26.9243 0.238037 26.3247 0.238037 25.6244C0.238037 24.924 0.487416 24.3244 0.986172 23.8257C1.48493 23.3269 2.0845 23.0775 2.78488 23.0775H23.1596C23.86 23.0775 24.4596 23.3269 24.9583 23.8257C25.4571 24.3244 25.7065 24.924 25.7065 25.6244C25.7065 26.3247 25.4571 26.9243 24.9583 27.4231C24.4596 27.9218 23.86 28.1712 23.1596 28.1712H2.78488ZM4.0583 20.5307C3.6975 20.5307 3.39506 20.4086 3.15099 20.1646C2.90692 19.9205 2.78488 19.6181 2.78488 19.2572V16.2965C2.78488 16.1268 2.81672 15.9623 2.88039 15.8031C2.94406 15.6439 3.03957 15.5007 3.16691 15.3733L14.3093 4.23087L19.0847 9.0062L7.94224 20.1486C7.8149 20.276 7.67164 20.3715 7.51246 20.4352C7.35328 20.4988 7.1888 20.5307 7.01901 20.5307H4.0583ZM5.33172 17.9838H6.4778L15.5191 9.0062L14.3093 7.79645L5.33172 16.8377V17.9838ZM20.5173 7.60544L15.7419 2.83011L18.0341 0.537949C18.2676 0.283265 18.5647 0.161228 18.9255 0.17184C19.2863 0.182452 19.5834 0.304488 19.8169 0.537949L22.8094 3.53049C23.0429 3.76395 23.1596 4.05578 23.1596 4.40597C23.1596 4.75616 23.0429 5.0586 22.8094 5.31328L20.5173 7.60544Z" fill="white"/>
</svg>
